<svg width="100" height="102" viewBox="0 0 100 102" fill="none" xmlns="http://www.w3.org/2000/svg">
<path d="M32.2689 44.9232C25.7216 33.4544 8.72975 44.2871 0 51.1374C0 51.4187 6.93528 56.2914 14.4976 59.7389C17.217 60.9786 21.0449 62.6081 23.3833 62.6081C29.4629 63.0862 37.7503 54.525 32.2689 44.9232Z" fill="white"/>
<path d="M67.7311 56.8932C74.2784 68.362 91.2702 57.5293 100 50.679C100 50.3977 93.0647 45.525 85.5024 42.0775C82.783 40.8378 78.9551 39.2083 76.6167 39.2083C70.5371 38.7302 62.2497 47.2915 67.7311 56.8932Z" fill="white"/>
<path d="M56.1407 32.9772C67.3632 26.2861 56.7631 8.92136 50.0599 0C49.7847 0 45.0166 7.0875 41.6432 14.8158C40.4301 17.5949 38.8356 21.5068 38.8356 23.8965C38.3677 30.1096 46.7451 38.5789 56.1407 32.9772Z" fill="white"/>
<path d="M43.7295 68.7416C32.5069 75.4326 43.107 92.7974 49.8102 101.719C50.0854 101.719 54.8535 94.6312 58.2269 86.9029C59.44 84.1239 61.0345 80.2119 61.0345 77.8223C61.5024 71.6092 53.125 63.1399 43.7295 68.7416Z" fill="white"/>
<ellipse cx="49.5718" cy="50.1828" rx="6.07965" ry="6.21309" fill="white"/>
<path d="M37.4107 33.4601C39.6571 35.8164 43.5692 42.5507 42.5862 43.5295C41.6032 44.5082 34.9839 40.5916 32.7374 38.2353C30.491 35.8789 28.0095 30.1397 28.9926 29.1609C29.9756 28.1822 35.1643 31.1037 37.4107 33.4601Z" fill="white"/>
<path d="M66.4885 37.741C64.1812 40.035 57.679 44.1231 56.791 43.1902C55.9029 42.2574 59.844 35.6047 62.1513 33.3106C64.4587 31.0166 69.9688 28.3717 70.8568 29.3045C71.7449 30.2373 68.7959 35.4469 66.4885 37.741Z" fill="white"/>
<path d="M37.5923 68.3271C39.8388 65.722 43.7509 58.2766 42.7679 57.1945C41.7848 56.1124 35.1655 60.4426 32.9191 63.0477C30.6727 65.6529 28.1912 71.9981 29.1742 73.0802C30.1572 74.1623 35.3459 70.9323 37.5923 68.3271Z" fill="white"/>
<path d="M66.6702 63.5955C64.3628 61.0592 57.8607 56.5395 56.9726 57.5709C56.0846 58.6022 60.0256 65.9574 62.333 68.4937C64.6403 71.0299 70.1504 73.9541 71.0385 72.9228C71.9265 71.8915 68.9775 66.1318 66.6702 63.5955Z" fill="white"/>
</svg>
