<svg width="82" height="82" viewBox="0 0 82 82" fill="none" xmlns="http://www.w3.org/2000/svg">
<rect width="82" height="82" rx="41" fill="white"/>
<path d="M31.3343 55.9533L23.3702 47.4683C23.1951 47.2818 23.0981 47.0362 23.0996 46.7804C23.1213 42.9378 23.2169 35.7529 23.2514 34.0645C23.2865 32.3517 25.2142 30.6393 26.8539 30.228C26.9219 30.2109 26.9915 30.2037 27.0615 30.2033L40.6378 30.1252C40.9413 30.1235 41.2292 30.2597 41.4203 30.4955L47.7179 38.264C48.2461 38.9156 47.7856 39.8889 46.9468 39.8937L42.8371 39.9174C40.0084 39.9139 34.2251 39.9197 33.7208 39.9698C33.2674 40.0149 33.0602 40.4118 32.9961 40.6634C32.9829 40.7152 32.98 40.7688 32.9803 40.8223L33.0634 55.2632C33.0686 56.1723 31.9564 56.6162 31.3343 55.9533Z" fill="black"/>
<path d="M50.9939 25.916L59.1397 34.5946C59.3148 34.7811 59.4118 35.0269 59.4104 35.2827C59.3884 39.1934 59.2909 46.517 59.2557 48.2372C59.22 49.9818 57.2557 51.726 55.5857 52.144C55.5178 52.161 55.4482 52.1682 55.3782 52.1686L41.5441 52.2482C41.2406 52.25 40.9527 52.1138 40.7615 51.878L34.3199 43.9318C33.7917 43.2801 34.2522 42.3069 35.091 42.3021L39.3135 42.2778C42.1936 42.2812 48.0823 42.2754 48.5957 42.2243C49.0582 42.1783 49.2691 41.7728 49.3339 41.5168C49.347 41.4649 49.35 41.4113 49.3497 41.3578L49.2648 26.6061C49.2596 25.6971 50.3718 25.2532 50.9939 25.916Z" fill="black"/>
</svg>
