<svg width="583" height="134" viewBox="0 0 583 134" fill="none" xmlns="http://www.w3.org/2000/svg">
<path d="M180.34 36.97H205.18C217.33 36.97 224.35 43.27 224.35 54.16C224.35 61 221.47 66.58 216.34 69.46C213.55 70.99 209.86 71.8 205.27 71.8H188.26V97H180.34V36.97ZM203.65 64.87C207.7 64.87 210.67 64.15 212.56 62.62C214.99 60.55 216.34 57.58 216.34 54.25C216.34 50.38 214.45 47.05 211.48 45.34C209.41 44.26 207.25 43.9 203.65 43.9H188.44V64.87H203.65ZM262.717 82.69C262.447 86.56 261.007 89.89 258.397 92.86C255.247 96.55 249.937 98.62 243.547 98.62C231.037 98.62 223.207 89.89 223.207 75.76C223.207 68.56 224.737 63.43 227.887 59.2C231.577 54.16 237.067 51.55 243.547 51.55C251.017 51.55 256.687 54.79 260.017 60.91C262.087 64.78 263.167 69.1 263.167 73.69V77.2H231.217C231.487 81.79 232.207 84.49 234.007 87.01C236.077 90.16 239.767 91.96 243.817 91.96C247.327 91.96 250.387 90.79 252.187 88.36C253.537 87.01 253.897 85.57 254.617 82.69H262.717ZM255.247 71.17C254.887 63.25 250.207 58.21 243.277 58.21C236.347 58.21 231.847 63.25 231.217 71.17H255.247ZM266.912 53.08H274.382V60.1C277.622 54.34 280.772 52.18 285.362 52.18H288.332V60.1H285.992C281.402 60.1 278.162 61.81 276.092 65.32C275.102 67.03 274.202 70.81 274.202 73.24V97H266.912V53.08ZM315.598 65.5C315.328 62.71 315.148 61.81 314.158 60.64C312.628 58.93 309.748 58.03 305.608 58.03C300.568 58.03 296.968 60.55 296.968 64.42C296.968 65.77 297.598 66.85 298.588 67.48C299.218 67.93 300.028 68.2 301.108 68.56L307.678 70.27C312.808 71.62 316.678 72.7 318.208 73.42C322.438 75.49 324.508 78.91 324.508 83.59C324.508 92.68 317.218 98.62 306.148 98.62C294.268 98.62 287.878 92.95 287.878 82.78H295.438C295.528 86.02 295.888 87.37 297.238 88.72C299.038 90.52 302.728 91.69 306.958 91.69C312.718 91.69 316.588 89.08 316.588 84.85C316.588 82.6 315.328 80.98 312.898 79.99C312.088 79.63 311.368 79.45 308.938 78.82C307.498 78.37 305.518 78.01 303.808 77.56C297.778 76.12 294.988 75.04 292.828 73.33C290.398 71.53 289.228 68.47 289.228 65.23C289.228 61.72 290.578 58.57 293.188 56.05C296.338 52.9 300.298 51.46 306.148 51.46C316.858 51.46 323.338 56.86 323.338 65.5H315.598ZM355.187 91.15C353.117 93.67 352.487 94.3 351.497 95.11C349.067 97 345.647 98.17 341.777 98.17C336.017 98.17 331.247 95.83 328.997 91.96C327.827 89.89 327.287 87.28 327.287 84.31V53.08H334.577V81.61C334.577 88 337.817 91.51 343.667 91.51C350.597 91.51 355.367 86.38 355.367 78.46V53.08H362.657V97H355.187V91.15ZM407.599 97.27C404.449 97.54 403.729 97.63 402.379 97.63C397.789 97.63 395.989 95.38 395.719 90.61C393.289 93.76 392.029 94.93 390.139 96.1C387.529 97.54 384.019 98.35 380.689 98.35C371.779 98.35 366.199 93.4 366.199 85.48C366.199 80.08 368.899 75.67 373.309 73.6C375.559 72.61 377.719 72.16 385.909 70.99C394.099 70 395.269 69.1 395.269 65.86C395.269 60.73 392.029 58.21 385.549 58.21C378.709 58.21 375.469 60.73 374.839 66.4H367.099C367.819 57.04 374.659 51.73 385.909 51.73C396.349 51.73 402.559 56.59 402.559 64.51V88C402.559 90.79 403.459 91.69 405.529 91.69C406.159 91.69 406.519 91.69 407.599 91.42V97.27ZM395.089 74.77C391.579 75.94 389.959 76.48 384.199 77.2C376.909 78.28 373.849 80.62 373.849 85.21C373.849 89.62 376.819 92.23 382.129 92.23C385.999 92.23 389.419 90.79 392.389 88C394.459 85.84 395.089 84.58 395.089 81.97V74.77ZM447.61 81.25C446.98 92.14 440.5 98.71 430.33 98.71C422.41 98.71 415.93 95.29 412.6 89.17C410.53 85.66 409.36 80.44 409.36 75.85C409.36 68.38 410.89 63.25 414.4 58.66C418.18 53.89 423.31 51.46 429.7 51.46C440.23 51.46 446.62 57.13 447.25 67.12H439.33C438.7 61.36 435.37 58.21 429.7 58.21C425.29 58.21 421.42 60.46 419.35 64.15C417.82 66.76 417.1 70.81 417.1 76.12C417.1 85.75 421.87 91.78 429.7 91.78C435.73 91.78 439.15 88.27 439.87 81.25H447.61ZM445.818 52.81H451.848V41.56H459.138V52.81H466.248V58.66H459.408V85.39C459.408 90.07 460.128 90.88 464.178 90.88C464.538 90.88 465.348 90.79 466.518 90.79V96.73C463.278 97 462.198 97.09 461.028 97.09C454.548 97.09 451.848 94.39 451.848 87.82V58.66H445.818V52.81ZM469.412 53.08H476.702V97H469.412V53.08ZM469.412 36.97H476.702V45.34H469.412V36.97ZM487.398 53.08L499.008 88.36L510.978 53.08H519.168L502.518 97H494.868L479.208 53.08H487.398ZM556.712 82.69C556.442 86.56 555.002 89.89 552.392 92.86C549.242 96.55 543.932 98.62 537.542 98.62C525.032 98.62 517.202 89.89 517.202 75.76C517.202 68.56 518.732 63.43 521.882 59.2C525.572 54.16 531.062 51.55 537.542 51.55C545.012 51.55 550.682 54.79 554.012 60.91C556.082 64.78 557.162 69.1 557.162 73.69V77.2H525.212C525.482 81.79 526.202 84.49 528.002 87.01C530.072 90.16 533.762 91.96 537.812 91.96C541.322 91.96 544.382 90.79 546.182 88.36C547.532 87.01 547.892 85.57 548.612 82.69H556.712ZM549.242 71.17C548.882 63.25 544.202 58.21 537.272 58.21C530.342 58.21 525.842 63.25 525.212 71.17H549.242ZM559.826 88.27H568.196V97H559.826V88.27Z" fill="black"/>
<path d="M38.0037 131.493L0.657409 91.7037C0.482333 91.5172 0.385343 91.2795 0.386577 91.0237C0.458033 76.2101 0.851669 46.5302 0.991651 39.6944C1.13214 32.834 8.97131 25.9753 15.5009 24.4912C15.5692 24.4757 15.6381 24.4683 15.7082 24.4679L70.9761 24.1498C71.2797 24.148 71.5676 24.2843 71.7587 24.5201L101.347 61.0197C101.875 61.6714 101.415 62.6446 100.576 62.6494L78.2366 62.778C67.0805 62.7646 44.2711 62.7871 42.2823 62.9849C40.348 63.1773 39.5496 64.9937 39.3735 65.9512C39.3638 66.0038 39.3602 66.057 39.3605 66.1105L39.7328 130.803C39.7381 131.712 38.6258 132.156 38.0037 131.493Z" fill="black"/>
<path d="M105.273 2.08721L143.336 42.6402C143.511 42.8267 143.608 43.0644 143.606 43.3202C143.534 58.4011 143.133 88.6298 142.99 95.5911C142.847 102.577 134.864 109.561 128.215 111.072C128.147 111.087 128.078 111.095 128.008 111.095L71.7228 111.419C71.4193 111.421 71.1314 111.284 70.9403 111.049L40.7839 73.8481C40.2557 73.1965 40.7162 72.2232 41.555 72.2184L64.339 72.0873C75.6982 72.101 98.9228 72.078 100.948 71.8766C102.918 71.6806 103.731 69.8294 103.91 68.8548C103.92 68.8022 103.923 68.7491 103.923 68.6956L103.543 2.77733C103.538 1.86829 104.65 1.42437 105.273 2.08721Z" fill="black"/>
</svg>
